<svg xmlns="http://www.w3.org/2000/svg" xmlns:xlink="http://www.w3.org/1999/xlink" version="1.1" baseProfile="tiny" x="0px" y="0px" width="100px" height="100px" viewBox="0 0 100 100" xml:space="preserve">
<g id="Captions">
</g>
<g id="Your_Icon">
	<path fill-rule="evenodd" fill="#000000" d="M88,29v-2c0-2.939-0.961-4-4-4H16c-3.061,0-4,1.039-4,4v2c0,3.1,1.039,4,4,4h68   C87,33,88,32.039,88,29z M88,51v-2c0-2.939-0.961-4-4-4H16c-3.061,0-4,1.039-4,4v2c0,3.1,1.039,4,4,4h68C87,55,88,54.039,88,51z    M88,73v-2c0-2.939-0.961-4-4-4H16c-3.061,0-4,1.039-4,4v2c0,3.1,1.039,4,4,4h68C87,77,88,76.039,88,73z"/>
</g>
</svg>